<!-- icon666.com - MILLIONS vector ICONS FREE --><svg id="Apple" enable-background="new 0 0 300 390" viewBox="0 0 300 390" xmlns="http://www.w3.org/2000/svg"><switch><g><g id="XMLID_336_"><path id="XMLID_409_" d="m216 18.5c-22.2 12.7-36.6 33.8-41.6 56.9 22.5 7.3 48 5.5 70.2-7.3 22.2-12.7 36.6-33.8 41.6-56.9-22.6-7.3-48.1-5.4-70.2 7.3z" fill="#39b54a"></path><path id="XMLID_440_" d="m288.3 4.6c-25.2-8.2-52.8-5.3-75.8 7.9s-39.4 35.6-45 61.5c-.8 3.5 1.3 7 4.7 8.1 13.9 4.5 28.6 5.7 42.8 3.6 11.5-1.7 22.7-5.5 33-11.4 23-13.2 39.4-35.6 45-61.5.7-3.6-1.3-7.1-4.7-8.2zm-47.3 57.5c-17.6 10.1-38.5 13.1-58.2 8.5 5.9-19.3 19-35.9 36.6-46s38.5-13.1 58.2-8.5c-5.9 19.4-18.9 35.9-36.6 46z"></path><path id="XMLID_331_" d="m190.1 108.4c-21.2 0-40.1 9.9-40.1 9.9s-18.9-9.9-40.1-9.9c-65.4 0-102.7 44-102.7 110.6 0 75.8 45.1 164 106.5 164 21.9 0 36.3-15.7 36.3-15.7s14.4 15.7 36.3 15.7c61.4 0 106.5-88.2 106.5-164 0-66.7-37.3-110.6-102.7-110.6z" fill="#ed1c24"></path><g id="XMLID_410_" fill="#fff"><path id="XMLID_441_" d="m175.1 143.3c-.4-4.1-4.2-7.1-8.3-6.3-.6.1-1.2.2-1.8.4-4 .9-6.4 5-5.2 8.9 1.1 3.4 4.6 5.5 8.1 4.8.5-.1 1-.2 1.6-.3 3.6-.7 5.9-3.9 5.6-7.5z"></path><path id="XMLID_442_" d="m265.9 220.7c-1.2-21.7-7.5-40.6-18.6-54.9-11.3-14.5-27.2-24.2-46.5-28.1-4-.8-7.9 1.9-8.4 6-.4 3.6 2 7 5.6 7.7 32.6 6.6 52 31.6 53.9 70 .2 3.7 3.3 6.6 7 6.6 4.1.1 7.3-3.3 7-7.3z"></path></g><path id="XMLID_384_" d="m190.1 101.4c-3.4 0-6.9.2-10.4.7-3.8.5-6.8 3.9-6.3 7.8.4 3.9 4 6.7 7.8 6.2 3.1-.4 6.1-.6 8.9-.6 59.9 0 95.7 38.7 95.7 103.6 0 36.5-10.9 76.4-29.2 106.8-19.4 32.4-44.4 50.2-70.3 50.2-18.4 0-31-13.3-31.1-13.4-2.8-3-7.6-3-10.3 0-.1.1-12.5 13.4-31.1 13.4-25.9 0-50.8-17.8-70.3-50.2-18.3-30.5-29.2-70.4-29.2-106.9 0-64.9 35.8-103.6 95.7-103.6 19.1 0 36.7 9 36.9 9.1 4.3 2.2 9.4-.4 10.2-5.1.3-1.7 5.7-39.8-20.6-59.4-3.4-2.6-8.4-1.4-10.4 2.4-1.5 3-.8 6.7 1.9 8.7 12.8 9.7 15.4 26.3 15.6 36.8-8.1-3-20.4-6.5-33.6-6.5-67.7 0-109.7 45-109.7 117.6 0 38.9 11.7 81.5 31.2 114 22.1 36.7 51.3 57 82.3 57 16.8 0 29.6-8 36.3-13.3 6.7 5.3 19.5 13.3 36.3 13.3 31 0 60.2-20.2 82.3-57 19.5-32.5 31.2-75.2 31.2-114-.1-72.6-42.2-117.6-109.8-117.6z"></path></g></g></switch></svg>