<!-- icon666.com - MILLIONS vector ICONS FREE --><svg id="Layer_1" enable-background="new 0 0 3000 3000" viewBox="0 0 3000 3000" xmlns="http://www.w3.org/2000/svg"><g><path d="m1508.2 1258c0-28.3-85.5-641.1-247.1-855.5-36.1-47.8-23.8-116.4 26.4-149.2 53.7-35.1 137.1-67.9 262.8-72 58.4-1.9 106.7 45 106.7 103.4v973.3z" fill="#802f00"></path></g><g><path d="m1614.9 1138.5s-200.9-691.6 659.2-1010c0 0-32.6 925.8-659.2 1010z" fill="#648b08"></path></g><g><path d="m1657.5 1096.9s128.6-574.5 442.7-681.7c-.1 0-245.2 165.2-442.7 681.7z" fill="#4a6c01"></path></g><g><path d="m1906.1 2851.5c-448.1 64.1-797.2-29-1044.1-231.3-253.8-208-399.7-531.4-434.1-918.3-19.9-223.7 60.5-445.1 220.5-601.2 134.2-130.8 327.9-219.2 582.1-88.8 316.4 162.3 548 48.6 765.7-36.5 155.4-60.8 303.7-107 470.6-27.7 400.6 190 444.2 1760-560.7 1903.8z" fill="#a0b530"></path></g><g enable-background="new" opacity=".22"><g><path d="m1905.7 2851.5c-448.1 64.1-797.2-29-1044.1-231.3 2173.2 278.1 1134.2-1644.9 1134.2-1644.9 155.4-60.8 303.7-107 470.6-27.7 400.6 190.1 444.2 1760.1-560.7 1903.9z" fill="#648a0b"></path></g></g><g enable-background="new" opacity=".33"><path d="m932.5 1358.7c46.9-115.2-106.8-205.1-183.3-107-45.9 58.9-86.3 140.2-113.5 252.2-115.6 475.9 206.2 773.6 261.9 644.2 44.2-102.5-100.6-456.6 34.9-789.4z" fill="#fff"></path></g><g><path d="m1680.2 2906.3c-9.7 0-19.4-.1-29.1-.4-7-.2-14.1-.5-21.2-.8-241.4-10.7-474.7-89-674.7-226.4-199.2-136.8-356.8-326.2-455.7-547.7-94.6-211.8-127.2-415.4-96.9-605.4 13.7-86.1 40.5-168.9 79.7-246.2 36.8-72.6 84.6-140.5 142-201.8 71.1-75.9 154.8-125.4 248.6-147.2 74.6-17.3 155.4-17.1 240.2.6 130.8 27.4 229.1 87.6 247.7 99.5 212.2 84.6 486.5-31.7 503.7-39.2 146.5-77 280.7-116.2 398.8-116.4h1.1c95.1 0 179.6 24.9 251.1 74.1 76.9 52.9 134 132.1 160.8 223.2 54.6 185.8 78.3 375.1 70.5 562.6-6.3 150.8-32.9 301-79.1 446.2-34.5 108.4-86 209.7-152.9 301-65.5 89.3-144.3 167.2-234.4 231.5-90.2 64.4-189.4 113.7-294.9 146.5-99 30.8-201.6 46.3-305.3 46.3zm-692.3-1922.6c-35 0-68.8 3.8-101.1 11.4-80.5 18.9-152.6 61.9-214.3 127.8-53.1 56.7-97.3 119.4-131.3 186.5-36 71.1-60.7 147.4-73.3 226.7-28.2 177.1 2.8 368.2 92 568.1 94 210.4 243.6 390.3 432.8 520.2 189.9 130.4 411.2 204.7 640.3 214.9 6.7.3 13.4.5 20.1.7 106.4 3 211.6-11.5 312.9-42.9 98.7-30.6 191.6-76.8 276.1-137.1 84.4-60.3 158.2-133.2 219.5-216.8 62.8-85.6 111-180.4 143.3-282 44.4-139.7 70-284 76.1-428.9 7.5-180.3-15.3-362.4-67.9-541.3-22.5-76.5-70.4-143.1-134.8-187.4-60.3-41.5-132.3-62.5-213.7-62.5-.3 0-.6 0-.9 0-107.6.2-231.9 37-369.2 109.4-.6.3-1.2.6-1.9.9-3.2 1.4-79.3 35.3-185.7 57.5-62.8 13.1-123.2 19.3-179.6 18.5-71.6-1-136.9-13.3-194.1-36.7-2-.8-4-1.9-5.8-3.1-1-.6-99.1-65.3-229.5-92.2-37.9-7.9-74.6-11.7-110-11.7z"></path></g><g><path d="m1471 1102.1c-17.1 0-31.6-13.2-32.9-30.6-16.4-221.6-92.9-425.1-137-526.7-14.2-32.7-33.3-64.3-56.6-93.9-20.6-26.1-34.3-52-40.7-77-6.2-24.2-5.7-47.8 1.5-70.1 11.4-35.6 40.2-67.4 83.1-91.9 26.1-14.9 50.1-22.9 57-25.1 8.9-3.6 51.8-20.5 103.8-31.8 82-17.8 144.6-12.8 186.2 14.9 24.8 16.5 54.5 49.9 54.5 114.8v348.8c0 18.2-14.8 33-33 33s-33-14.8-33-33v-348.8c0-43.2-18.8-55.7-25-59.8-25.4-16.9-73.6-18.8-135.7-5.3-51.4 11.2-93.5 28.7-94 28.8-1.2.5-2.4.9-3.6 1.3-22.6 6.7-84.5 33.1-97.6 74.5-7.6 23.8 1.9 52.7 28.1 85.9 26.9 34 48.9 70.5 65.4 108.5 45.8 105.4 125.1 316.8 142.3 548.1 1.3 18.2-12.3 34-30.5 35.3-.6.1-1.5.1-2.3.1z"></path></g><g><path d="m1601.5 1102.1c-14.1 0-27.2-9.2-31.6-23.4-1.8-6.1-44.5-150.8 21.1-345.4 38.1-113.1 105.2-220 199.3-317.6 116.2-120.5 274.3-227.3 470-317.2 10.4-4.8 22.6-3.8 32.1 2.5 9.5 6.4 15.1 17.2 14.7 28.7-.3 6.9-6.9 170.2-59.8 365.3-31.2 115.2-72.2 217.4-121.7 303.7-62.9 109.5-139.9 193.9-229 250.7-15.4 9.8-35.8 5.3-45.6-10.1s-5.3-35.8 10.1-45.6c80-51 149.7-127.7 207.3-227.9 46.7-81.4 85.5-178.4 115.3-288.1 32.9-121.6 47.3-231.9 53.4-295.1-164.7 81.1-298.8 174.8-399.1 278.8-87.3 90.5-149.2 189-184.2 292.8-58.9 174.7-20.9 303.8-20.5 305.1 5.3 17.4-4.5 35.9-22 41.2-3.3 1.1-6.6 1.6-9.8 1.6z"></path></g></svg>