<!-- icon666.com - MILLIONS vector ICONS FREE --><svg version="1.1" id="Layer_1" xmlns="http://www.w3.org/2000/svg" xmlns:xlink="http://www.w3.org/1999/xlink" x="0px" y="0px" viewBox="0 0 511.999 511.999" style="enable-background:new 0 0 511.999 511.999;" xml:space="preserve"><path style="fill:#9AD14B;" d="M256.003,119.022v33.276h-33.276c-60.706,0-109.903-49.209-109.903-109.903V9.119h33.264 C206.794,9.119,256.003,58.328,256.003,119.022z"></path><path style="fill:#90BC42;" d="M256.003,152.298h-33.276c-60.706,0-109.903-49.209-109.903-109.903V9.119L256.003,152.298z"></path><path style="fill:#F95428;" d="M291.126,152.298c102.478,0,173.879,101.712,139.059,198.088l-31.647,87.577 c-2.613,7.243-6.004,14.061-10.051,20.357c-5.53,8.605-12.299,16.249-20.004,22.727h-0.012c-6.964,5.87-14.706,10.768-23.006,14.584 c-19.373,8.884-41.528,9.443-61.606,2.333c-4.74-1.677-9.601-2.905-14.511-3.707c-4.412-0.717-8.884-1.069-13.344-1.069 c-9.419,0-18.838,1.592-27.856,4.776c-6.684,2.358-13.575,3.877-20.539,4.521c-13.964,1.3-28.135-0.924-41.066-6.855 c-24.197-11.096-43.631-31.538-53.074-57.668L81.82,350.386c-34.82-96.377,36.582-198.088,139.047-198.088h1.859h33.276H291.126z"></path><path style="fill:#E54728;" d="M173.809,350.386l14.937,87.577c4.46,26.13,13.624,46.572,25.048,57.668 c2.054,1.993,4.169,3.573,6.332,4.728c-4.132,1.033-8.313,1.738-12.518,2.127c-13.964,1.3-28.135-0.924-41.066-6.855 c-24.197-11.096-43.631-31.538-53.074-57.668L81.82,350.386c-34.82-96.377,36.582-198.088,139.047-198.088h18.558 C191.079,152.298,157.378,254.01,173.809,350.386z"></path><g><path style="fill:#FFFFFF;" d="M383.814,398.415c-1.029,0-2.075-0.175-3.098-0.544c-4.735-1.711-7.185-6.936-5.475-11.671 l17.793-49.237c12.162-33.664,7.342-69.773-13.223-99.069c-10.248-14.596-23.242-26.053-38.625-34.049 c-4.468-2.321-6.206-7.824-3.883-12.292c2.323-4.468,7.826-6.204,12.291-3.883c18.005,9.359,33.193,22.733,45.139,39.75 c24.025,34.224,29.654,76.408,15.447,115.737l-17.793,49.238C391.047,396.108,387.545,398.415,383.814,398.415z"></path><circle style="fill:#FFFFFF;" cx="316.086" cy="185.267" r="9.115"></circle></g><g><path style="fill:#000000;" d="M419.601,209.964c-29.793-42.441-76.621-66.783-128.479-66.783h-25.286 c4.387-27.704,28.43-48.955,57.348-48.955c5.035,0,9.115-4.081,9.115-9.115c0-5.034-4.08-9.115-9.115-9.115 c-23.759,0-45.01,10.919-59.015,27.998C256.759,45.433,206.632,0,146.093,0h-33.275c-5.035,0-9.115,4.081-9.115,9.115v33.276 c0,47.869,28.41,89.222,69.25,108.101c-32.202,10.166-60.311,30.634-80.554,59.469c-29.793,42.441-36.775,94.752-19.156,143.521 l0,0l31.649,87.579c10.148,28.08,30.691,50.403,57.845,62.855c14.113,6.473,29.92,9.116,45.708,7.646 c7.694-0.712,15.342-2.395,22.733-5.002c7.998-2.824,16.349-4.256,24.821-4.256c4,0,7.997,0.32,11.875,0.95 c4.44,0.726,8.793,1.836,12.937,3.302c10.265,3.635,20.829,5.445,31.291,5.444c12.79,0,25.43-2.705,37.165-8.088 c8.956-4.118,17.292-9.381,24.782-15.652c0.1-0.077,0.198-0.156,0.294-0.237c8.494-7.141,15.831-15.477,21.806-24.775 c4.464-6.942,8.15-14.409,10.957-22.188l31.647-87.579C456.374,304.714,449.393,252.404,419.601,209.964z M121.934,42.391V18.23 h24.16c55.576,0,100.792,45.214,100.792,100.791v24.161h-24.161C167.148,143.182,121.934,97.967,121.934,42.391z M421.61,347.287 l-31.649,87.582c-2.344,6.497-5.422,12.728-9.145,18.522c-4.923,7.66-10.957,14.54-17.936,20.453 c-0.097,0.075-0.193,0.152-0.287,0.232c-6.311,5.321-13.355,9.786-20.931,13.268c-16.994,7.794-36.444,8.515-54.767,2.026 c-5.165-1.827-10.576-3.21-16.089-4.11c-4.849-0.788-9.831-1.187-14.808-1.187c-10.544,0-20.938,1.782-30.888,5.295 c-5.973,2.107-12.146,3.467-18.352,4.041c-12.616,1.175-25.21-0.922-36.424-6.065c-22.673-10.397-39.828-29.036-48.299-52.48 l-31.649-87.579v0.001c-15.572-43.104-9.401-89.341,16.932-126.852c26.33-37.51,67.716-59.023,113.543-59.023h70.259 c45.834,0,87.225,21.514,113.558,59.027C431.012,257.949,437.182,304.184,421.61,347.287z"></path><path style="fill:#000000;" d="M227.667,133.08c2.332,0,4.666-0.89,6.446-2.67c3.56-3.56,3.56-9.331,0-12.89l-10.138-10.138V73.42 c0-5.034-4.08-9.115-9.115-9.115c-5.035,0-9.115,4.081-9.115,9.115v15.731l-14.698-14.698v-33.96c0-5.034-4.08-9.115-9.115-9.115 c-5.035,0-9.115,4.081-9.115,9.115v15.73l-25.221-25.221c-3.561-3.56-9.331-3.56-12.891,0s-3.56,9.331,0,12.89l25.221,25.221 h-15.73c-5.035,0-9.115,4.081-9.115,9.115c0,5.034,4.08,9.115,9.115,9.115h33.96l14.697,14.697h-15.73 c-5.035,0-9.115,4.081-9.115,9.115s4.08,9.115,9.115,9.115h33.961l10.138,10.138C223.001,132.189,225.335,133.08,227.667,133.08z"></path></g></svg>