<!-- icon666.com - MILLIONS vector ICONS FREE --><svg xmlns="http://www.w3.org/2000/svg" xmlns:xlink="http://www.w3.org/1999/xlink" version="1.1" id="Layer_1" x="0px" y="0px" viewBox="0 0 504.56 504.56" style="enable-background:new 0 0 504.56 504.56;" xml:space="preserve"><g><g><path style="fill:#70D65B;" d="M480.518,190.719c-12.76,22.45-26.6,44.18-41.45,65.13c8.38,9.47,8.07,23.94-0.99,33 c-7.44,7.43-18.52,8.97-27.49,4.66c-7.01,8.71-14.21,17.26-21.58,25.65c5.7,9.29,4.55,21.59-3.49,29.63 c-7.64,7.64-19.12,9.08-28.2,4.33c-49.46,49.91-105.68,93.09-167.29,128.09c-52.98,30.1-117.45,15.58-153.56-28.44h-0.01 c-8.91-10.85-16.1-23.5-20.96-37.71c-0.27-0.77-0.53-1.54-0.8-2.32c-18.9-55.2,4.31-115.86,55-144.75 c31.75-18.1,61.39-39.38,88.54-63.4c-6.67-9.41-5.81-22.52,2.62-30.95c8.62-8.62,22.13-9.32,31.58-2.16 c28.76-30.47,53.93-64.38,74.85-101.09c28.9-50.69,89.56-73.89,144.76-54.99c0.77,0.26,1.55,0.52,2.32,0.79 c8.95,3.06,17.27,7.04,24.92,11.8h0.01C493.078,61.409,513.368,132.899,480.518,190.719z"></path><path style="fill:#58B741;" d="M439.288,27.989c-46.57-11.53-77.23,36.61-95.48,79.61c-18.24,43.01-95.13,135.53-166.8,169.41 c-71.67,33.89-181.14,113.38-140.54,175.76h-0.01c-8.91-10.85-16.1-23.5-20.96-37.71c-0.27-0.77-0.53-1.54-0.8-2.32 c-18.9-55.2,4.31-115.86,55-144.75c31.75-18.1,61.39-39.38,88.54-63.4c-6.67-9.41-5.81-22.52,2.62-30.95 c8.62-8.62,22.13-9.32,31.58-2.16c28.76-30.47,53.93-64.38,74.85-101.09c28.9-50.69,89.56-73.89,144.76-54.99 c0.77,0.26,1.55,0.52,2.32,0.79C423.318,19.249,431.638,23.229,439.288,27.989z"></path></g><g><path d="M312.499,198.746c1.464,1.464,3.384,2.197,5.303,2.197s3.839-0.732,5.303-2.197c5.97-5.97,9.258-13.908,9.258-22.351 s-3.288-16.38-9.258-22.351c-12.324-12.324-32.377-12.324-44.701,0c-2.929,2.929-2.929,7.677,0,10.606 c2.928,2.929,7.677,2.929,10.606,0c6.476-6.475,17.013-6.476,23.488,0c3.137,3.137,4.864,7.308,4.864,11.744 s-1.728,8.607-4.864,11.744C309.57,191.068,309.57,195.817,312.499,198.746z"></path><path d="M423.215,206.731c1.464,1.464,3.384,2.197,5.303,2.197s3.839-0.732,5.303-2.197c5.97-5.97,9.258-13.908,9.258-22.351 s-3.288-16.38-9.258-22.351s-13.908-9.258-22.351-9.258s-16.38,3.288-22.351,9.258c-2.929,2.929-2.929,7.678,0,10.606 c2.929,2.929,7.678,2.929,10.606,0c3.137-3.137,7.308-4.864,11.744-4.864s8.607,1.728,11.744,4.864 c3.137,3.137,4.864,7.308,4.864,11.744s-1.728,8.607-4.864,11.744C420.286,199.054,420.286,203.803,423.215,206.731z"></path><path d="M277.746,371.96c1.464,1.464,3.384,2.197,5.303,2.197s3.839-0.732,5.303-2.197c5.97-5.97,9.258-13.908,9.258-22.351 s-3.288-16.38-9.258-22.351s-13.908-9.258-22.351-9.258s-16.38,3.288-22.351,9.258c-2.929,2.929-2.929,7.678,0,10.606 c2.929,2.929,7.678,2.929,10.606,0c3.137-3.137,7.308-4.864,11.744-4.864s8.607,1.728,11.744,4.864 c3.137,3.137,4.864,7.308,4.864,11.744s-1.728,8.607-4.864,11.744C274.817,364.283,274.817,369.032,277.746,371.96z"></path><path d="M194.729,469.84c-2.792,1.633-5.595,3.249-8.409,4.848c-29.518,16.77-64.661,19.489-96.417,7.459 c-31.773-12.037-56.308-37.375-67.314-69.521l-0.792-2.313c-17.661-51.583,4.047-108.7,51.617-135.812 c31.953-18.212,62.165-39.843,89.797-64.292c2.869-2.538,3.364-6.83,1.149-9.955c-4.69-6.616-3.933-15.581,1.801-21.314 c5.829-5.829,15.177-6.468,21.745-1.485c3.053,2.314,7.358,1.957,9.987-0.829c29.292-31.039,54.833-65.531,75.915-102.52 c5.251-9.215,11.723-17.631,19.235-25.017c2.954-2.904,2.994-7.652,0.09-10.606c-2.904-2.954-7.652-2.994-10.606-0.09 c-8.498,8.354-15.815,17.871-21.751,28.285c-19.508,34.228-42.947,66.26-69.721,95.289c-11.759-5.367-26.057-3.078-35.5,6.366 c-9.262,9.262-11.707,22.949-6.788,34.581c-25.628,22.156-53.451,41.838-82.781,58.555 c-53.819,30.674-78.372,95.315-58.381,153.702l0.793,2.317c12.457,36.382,40.227,65.063,76.191,78.687 c14.805,5.609,30.257,8.386,45.65,8.385c21.981,0,43.839-5.664,63.491-16.829c2.87-1.63,5.728-3.278,8.574-4.944 c3.575-2.092,4.777-6.686,2.686-10.261C202.898,468.95,198.303,467.748,194.729,469.84z"></path><path d="M495.482,85.283c-6.408-16.915-16.148-32.016-28.452-44.565c7.619-5.891,17.206-16.6,17.206-33.218 c0-4.142-3.358-7.5-7.5-7.5s-7.5,3.358-7.5,7.5c0,12.13-8.42,19.552-13.563,22.955c-11.474-9.196-24.576-16.466-38.875-21.362 l-2.319-0.794c-34.229-11.721-72.066-8.396-103.81,9.121c-3.626,2.001-4.944,6.563-2.943,10.19 c2.001,3.626,6.564,4.944,10.19,2.943c28.044-15.475,61.47-18.415,91.706-8.062l2.315,0.792 c32.143,11.005,57.481,35.54,69.518,67.313c12.03,31.757,9.312,66.899-7.459,96.417c-12.521,22.038-26.331,43.739-41.045,64.5 c-2.015,2.843-1.806,6.699,0.503,9.308c5.803,6.556,5.504,16.536-0.681,22.721c-4.971,4.971-12.579,6.26-18.933,3.206 c-3.14-1.509-6.906-0.657-9.092,2.058c-6.799,8.449-13.991,16.996-21.377,25.402c-2.171,2.472-2.479,6.07-0.758,8.874 c4.032,6.569,3.044,14.96-2.402,20.407c-5.158,5.158-12.966,6.357-19.426,2.985c-2.917-1.521-6.483-0.966-8.798,1.37 c-39.642,40.006-83.753,75.664-131.107,105.984c-3.489,2.234-4.506,6.872-2.272,10.36c1.432,2.236,3.852,3.457,6.323,3.457 c1.384,0,2.785-0.383,4.037-1.185c46.88-30.016,90.638-65.159,130.137-104.512c11.077,3.465,23.264,0.597,31.713-7.853 c9.007-9.007,11.613-22.242,7.117-33.76c5.174-5.964,10.24-11.979,15.13-17.968c10.705,2.788,22.303-0.206,30.315-8.218 c10.317-10.317,12.039-26.174,4.888-38.338c13.852-19.833,26.881-40.461,38.77-61.387 C506.022,161.01,509.099,121.229,495.482,85.283z"></path><path d="M131.306,363.323c1.464,1.465,3.384,2.197,5.303,2.197s3.839-0.732,5.303-2.197c12.324-12.324,12.324-32.377,0-44.701 c-12.324-12.324-32.377-12.324-44.701,0c-2.929,2.929-2.929,7.677,0,10.606c2.928,2.929,7.677,2.929,10.606,0 c6.476-6.476,17.012-6.475,23.488,0c6.475,6.476,6.475,17.013,0,23.488C128.377,355.646,128.378,360.395,131.306,363.323z"></path></g></g></svg>