<!-- icon666.com - MILLIONS vector ICONS FREE --><svg version="1.1" id="Lemon" enable-background="new 0 0 300 390" viewBox="0 0 300 390" xmlns="http://www.w3.org/2000/svg"><switch><g><g id="XMLID_30_"><path id="XMLID_10_" d="m221.8 30.4c-16.5-11.1-36.2-13.9-54.1-9.4 2.7 18.3 12.7 35.4 29.3 46.5 16.5 11.1 36.2 13.9 54.1 9.4-2.7-18.3-12.8-35.4-29.3-46.5z" fill="#39b54a"></path><path id="XMLID_15_" d="m258 75.9c-3-20.9-14.8-39.6-32.3-51.3-17.5-11.8-39.3-15.5-59.7-10.4-3.5.9-5.7 4.2-5.2 7.8 3 20.9 14.8 39.6 32.3 51.3 12.4 8.3 26.9 12.6 41.6 12.6 6.1 0 12.1-.7 18.1-2.2 3.4-.9 5.7-4.3 5.2-7.8zm-57.2-14.3c-12.4-8.3-21.2-20.8-24.9-35.1 14.6-2 29.6 1.4 42 9.7s21.2 20.8 24.9 35.1c-14.6 2-29.6-1.4-42-9.7z"></path><path id="XMLID_22_" d="m271.5 148.6c-6.2-20.1-21.9-35.8-42-42-58.9-18.1-125.6-3.9-172.2 42.7-48 48-61.6 117.2-41.1 177.3 1.8 5.4 2.1 11.2.5 16.7-1.4 4.9-.2 10.4 3.7 14.3s9.4 5.1 14.3 3.7c5.5-1.6 11.3-1.3 16.7.5 60.1 20.6 129.3 6.9 177.3-41.1 46.6-46.6 60.9-113.3 42.8-172.1z" fill="#ffe000"></path><g id="XMLID_11_" fill="#fff"><path id="XMLID_20_" d="m183.5 129.1c-38.3-1.9-75.4 12.4-102.7 39.7-18.3 18.2-30.8 40.8-36.4 65.7-.9 3.9 1.7 7.8 5.7 8.5 3.7.6 7.2-1.7 8-5.3 5.1-22.4 16.3-42.6 32.7-59 24.5-24.5 57.8-37.3 92.2-35.6 3.7.2 6.9-2.6 7.3-6.3.3-4-2.8-7.5-6.8-7.7z"></path><path id="XMLID_19_" d="m230.7 141.4c-2-1.3-4-2.4-6.2-3.5-3.9-1.9-8.5.1-9.8 4.2-1 3.3.5 6.9 3.7 8.4 1.6.8 3.2 1.7 4.7 2.6 2.9 1.9 6.7 1.4 9.1-1.2 2.9-3.2 2.2-8.2-1.5-10.5z"></path></g><path id="XMLID_4_" d="m292.1 77.4c-19.7 2.5-30.1 13.5-35.5 22.8-6.5 11.1-7.1 22.2-7.1 22.7-.1 1.9.6 3.8 2 5.2 6.1 6.3 10.7 14.2 13.3 22.6 18 58.6 2.3 121.9-41 165.2-44.8 44.8-110 59.9-170.1 39.4-6.9-2.4-14.1-2.6-20.9-.6-2.9.8-6.1-.2-8-2.7-1.5-1.9-1.9-4.4-1.2-6.7 1.9-6.7 1.7-13.9-.7-20.8-20.6-60.1-5.5-125.2 39.4-170.1 41.7-41.7 102-57.8 158.7-42.8 3.6 1 7.3-1.2 8.4-4.7 1.2-3.8-1.1-7.8-5-8.8-61.4-16.5-126.8 1-172 46.3-24.1 24.1-40.8 54.4-48.1 87.5-7.2 32.3-5.3 65.8 5.4 97 1.4 4.2 1.6 8.5.4 12.5-2.2 7.5-.1 15.6 5.5 21.1 5.5 5.5 13.6 7.6 21.1 5.5 4-1.1 8.3-1 12.5.4 18.8 6.4 38.4 9.7 58 9.7 13 0 26.1-1.4 38.9-4.3 33.1-7.4 63.4-24 87.5-48.1 47-47 64-115.6 44.5-179.2-2.9-9.5-7.8-18.3-14.4-25.7 1.1-7.3 6.4-26.4 30.2-29.5 3.5-.5 6.1-3.5 6-7 0-4.3-3.7-7.5-7.8-6.9z"></path><g id="XMLID_12_" fill="#ffc200"><circle id="XMLID_188_" cx="136" cy="334" r="7"></circle><circle id="XMLID_214_" cx="197.2" cy="305.8" r="7"></circle><circle id="XMLID_215_" cx="241.4" cy="247.1" r="7"></circle><circle id="XMLID_216_" cx="146.7" cy="284.2" r="7"></circle><circle id="XMLID_217_" cx="191.7" cy="254.1" r="7"></circle></g></g></g></switch></svg>