<!-- icon666.com - MILLIONS vector ICONS FREE --><svg viewBox="-66 0 512 512.00037" xmlns="http://www.w3.org/2000/svg"><path d="m194.945312 188.738281-36.273437-16.863281 8.429687-18.132812c25.996094-55.917969-29.53125-103.914063-30.09375-104.394532l-7.625-6.464844c-4.214843-3.574218-4.730468-9.882812-1.160156-14.097656l12.9375-15.25c3.570313-4.214844 9.882813-4.734375 14.09375-1.160156l7.628906 6.46875c.804688.683594 19.945313 17.074219 34.457032 43.171875 20.140625 36.210937 22.226562 73.757813 6.039062 108.585937zm0 0" fill="#78d0a9"></path><path d="m370 293c0-67.929688-41-167-96.667969-167-22.304687 0-43.144531.601562-60.859375 12.050781-13.644531 8.816407-31.300781 8.816407-44.945312 0-17.714844-11.449219-38.554688-12.050781-60.859375-12.050781-54.667969 0-96.667969 99.070312-96.667969 167 0 56.609375 32 209 180 209s180-152.390625 180-209zm0 0" fill="#b278d3"></path><path d="m273.332031 116.003906c-17.746093 0-34.117187.527344-49.175781 5.503906-.25-21.441406-6.273438-43.125-18.078125-64.347656-15.386719-27.667968-35.863281-45.207031-36.730469-45.941406l-7.625-6.46875c-4.074218-3.457031-9.253906-5.121094-14.574218-4.6796875-5.324219.4374995-10.160157 2.9218755-13.617188 6.9960935l-12.933594 15.253906c-3.457031 4.070313-5.121094 9.25-4.683594 14.574219s2.921876 10.160157 7 13.613281l7.585938 6.4375c.132812.113282 13.265625 11.550782 23.046875 29.15625 7.324219 13.1875 10.796875 26.101563 10.445313 38.621094-17.25-7.972656-36.324219-8.71875-57.324219-8.71875-28.800781 0-56.394531 22.515625-77.703125 63.402344-17.867188 34.28125-28.964844 77.808594-28.964844 113.59375 0 32.125 9.394531 85.652344 35.875 130.789062 33.851562 57.707032 87.148438 88.210938 154.125 88.210938s120.273438-30.503906 154.125-88.210938c26.480469-45.140624 35.875-98.664062 35.875-130.789062 0-70.464844-42.542969-176.996094-106.667969-176.996094zm-129.855469-74.28125-7.625-6.46875 12.933594-15.25 7.628906 6.464844c.75.636719 18.550782 15.886719 32.1875 40.410156 11.90625 21.410156 16.953126 43.28125 15.121094 64.625-6.40625 3.109375-13.628906 3.929688-20.464844 2.433594 2.574219-18.960938-1.617187-38.667969-12.527343-58.082031-11.671875-20.773438-27.09375-33.996094-27.253907-34.132813zm46.523438 450.277344c-139.457031 0-170-143.648438-170-199 0-68.550781 42.027344-156.996094 86.667969-156.996094 22.246093 0 40.453125.769532 55.433593 10.449219 6.339844 4.09375 13.371094 6.660156 20.578126 7.6875 3.433593 3.003906 16.375 15.027344 29.25 35.820313 19.480468 31.460937 29.359374 66.890624 29.371093 105.3125-.011719 39-10.441406 80.527343-30.992187 123.457031-1.160156 2.410156-1.308594 5.121093-.417969 7.640625.890625 2.519531 2.699219 4.550781 5.109375 5.703125 1.359375.648437 2.820312.976562 4.320312.976562 3.820313 0 7.367188-2.226562 9.019532-5.679687 21.878906-45.636719 32.96875-90.078125 32.960937-132.097656 0-23.46875-3.480469-46.328126-10.351562-67.960938-5.511719-17.347656-13.179688-33.878906-22.800781-49.140625-7.105469-11.277344-14.214844-20.207031-20.078126-26.777344 3.402344-1.277343 6.699219-2.921875 9.828126-4.941406 14.980468-9.679687 33.1875-10.449219 55.433593-10.449219 21.035157 0 43.023438 19.179688 60.328125 52.621094 16.246094 31.398438 26.339844 71.394531 26.339844 104.375 0 55.351562-30.539062 199-170 199zm0 0"></path><path d="m205.519531 449.679688c-1.539062-.910157-3.300781-1.398438-5.089843-1.398438-3.519532 0-6.820313 1.878906-8.609376 4.910156-2.808593 4.738282-1.238281 10.878906 3.5 13.699219 1.550782.910156 3.3125 1.398437 5.089844 1.398437 3.519532 0 6.820313-1.878906 8.609375-4.910156 2.820313-4.738281 1.25-10.878906-3.5-13.699218zm0 0"></path></svg>